<?xml version="1.0" encoding="UTF-8"?>
<svg id="_Слой_1" data-name="Слой 1" xmlns="http://www.w3.org/2000/svg" xmlns:xlink="http://www.w3.org/1999/xlink" viewBox="0 0 1000 1000">
  <defs>
    <style>
      .cls-1 {
        fill: #fff;
      }

      .cls-2 {
        fill: #a0e59c;
      }

      .cls-3 {
        fill: #9aa1b2;
      }

      .cls-4 {
        fill: #505782;
      }

      .cls-5 {
        fill: url(#_Безымянный_градиент_2);
      }
    </style>
    <linearGradient id="_Безымянный_градиент_2"  x1="683.8" y1="281.36" x2="388.37" y2="761.74" gradientUnits="userSpaceOnUse">
      <stop offset="0" stop-color="#7f8bff" stop-opacity=".5"/>
      <stop offset="1" stop-color="#2581c4" stop-opacity="0"/>
    </linearGradient>
  </defs>
  <path class="cls-5" d="M755.68,143.77L191.73,716.32s140.99,166.66,356.42,150.79"/>
  <g>
    <path class="cls-3" d="M715.33,185.66c-61.03-42.73-135.33-67.81-215.49-67.81-207.75,0-376.16,168.41-376.16,376.16,0,81.5,25.92,156.95,69.97,218.55L715.33,185.66Z"/>
    <path class="cls-3" d="M738.13,202.95l-191.6,664.35c185.71-23,329.46-181.35,329.46-373.29,0-117.31-53.7-222.07-137.86-291.06Z"/>
  </g>
  <path class="cls-4" d="M443.66,491.43l8.35,65.45s-49.56-7-84.85,.27c-35.29,7.27,0,0,0,0,0,0-31.78,5.66-38.25,20.47-6.46,14.81,0,0,0,0,0,0-9.16,17.78,8.62,33.13,17.78,15.35,0,0,0,0,0,0,20.74,14.55,49.29,26.4,28.55,11.85,0,0,0,0,0,0,41.75,17.24,57.37,40.67,15.62,23.43,0,0,0,0,0,0,16.7,26.67,14.81,50.37-1.89,23.7,0,0,0,0,0,0,.54,28.01-19.39,49.29-19.93,21.28,0,0,0,0,0,0-17.51,21.82-46.33,31.51s0,0,0,0c0,0-24.51,10.77-61.41,13.74-36.9,2.96,0,0,0,0,0,0-53.6,3.5-78.92,1.35s-25.86-2.15-25.86-2.15l-8.08-64.92s41.48,4.04,70.03,2.42c28.55-1.62,0,0,0,0,0,0,56.3-2.42,65.99-19.12,9.7-16.7,0,0,0,0,0,0,16.43-22.63-6.46-43.1-22.9-20.47,0,0,0,0,0,0-25.59-16.97-42.83-22.36s-49.29-28.55-49.29-28.55c0,0-18.32-15.35-24.24-35.82s0,0,0,0c0,0-11.04-37.98,7.27-64.65,18.32-26.67,0,0,0,0,0,0,18.05-26.13,39.33-35.29,21.28-9.16,0,0,0,0,0,0,29.9-14.55,61.14-18.05,31.25-3.5,0,0,0,0,0,0,53.87-5.39,71.11-2.96,17.24,2.42,0,0,0,0l32.59,1.89"/>
  <g>
    <path class="cls-2" d="M343.36,492.06c.28-.03,.54-.06,.81-.09-.28,.03-.55,.06-.81,.09Z"/>
    <path class="cls-2" d="M342.09,492.2c.39-.04,.82-.09,1.27-.14-.41,.05-.83,.09-1.27,.14Z"/>
    <path class="cls-2" d="M340.83,492.34c.3-.03,.65-.07,1.04-.12-.34,.04-.69,.08-1.04,.12Z"/>
    <path class="cls-2" d="M341.88,492.22c.07,0,.14-.02,.21-.02-.07,0-.14,.02-.21,.02Z"/>
    <path class="cls-2" d="M344.98,491.88s.07,0,.1-.01c-.03,0-.07,0-.1,.01Z"/>
    <path class="cls-2" d="M345.08,491.86c.28-.03,.57-.06,.86-.1-.28,.03-.57,.06-.86,.1Z"/>
    <path class="cls-2" d="M339.69,492.47s.03,0,.07,0c-.02,0-.04,0-.07,0Z"/>
    <path class="cls-2" d="M247.35,533.96s0-.01,0,0h0Z"/>
    <path class="cls-2" d="M247,534.47c.21-.31,.32-.47,.35-.51-.03,.05-.16,.23-.35,.51Z"/>
    <path class="cls-2" d="M246.7,534.91c.11-.17,.22-.31,.3-.44-.08,.12-.18,.27-.3,.44Z"/>
    <path class="cls-2" d="M339.76,492.46s.03,0,.05,0c-.02,0-.04,0-.05,0Z"/>
    <path class="cls-2" d="M339.81,492.46c.12-.01,.33-.04,.61-.07-.2,.02-.4,.05-.61,.07Z"/>
    <path class="cls-2" d="M246.08,535.82c.25-.36,.45-.66,.62-.91-.18,.26-.39,.57-.62,.91Z"/>
    <path class="cls-2" d="M340.42,492.39c.14-.02,.28-.03,.41-.05-.15,.02-.29,.03-.41,.05Z"/>
    <path class="cls-2" d="M344.17,491.97c.27-.03,.54-.06,.81-.09-.26,.03-.54,.06-.81,.09Z"/>
    <path class="cls-2" d="M245.69,536.38c.13-.2,.26-.38,.39-.56-.12,.17-.25,.36-.39,.56Z"/>
    <path class="cls-2" d="M239.69,545.12c.06-.09,.13-.19,.19-.28-.07,.1-.13,.2-.19,.28Z"/>
    <path class="cls-2" d="M239.88,544.84c.07-.11,.15-.22,.24-.35-.08,.11-.16,.23-.24,.35Z"/>
    <path class="cls-2" d="M239.26,545.75s.02-.04,.04-.06c-.01,.02-.03,.04-.04,.06Z"/>
    <path class="cls-2" d="M239.22,545.8s.02-.03,.04-.05c-.02,.03-.04,.05-.04,.05Z"/>
    <path class="cls-2" d="M239.3,545.69c.04-.06,.08-.12,.12-.18-.05,.08-.09,.13-.12,.18Z"/>
    <path class="cls-2" d="M240.12,544.5c.52-.75,1-1.46,1.45-2.11-.55,.81-1.06,1.54-1.45,2.11Z"/>
    <path class="cls-2" d="M239.42,545.51c.07-.1,.16-.23,.27-.39-.09,.13-.18,.26-.27,.39Z"/>
    <path class="cls-2" d="M244.01,538.83c.2-.29,.39-.57,.59-.85-.19,.27-.38,.55-.59,.85Z"/>
    <path class="cls-2" d="M244.6,537.97c.41-.6,.78-1.13,1.09-1.59-.34,.49-.7,1.03-1.09,1.59Z"/>
    <path class="cls-2" d="M243.81,539.12c.07-.1,.14-.2,.2-.3-.07,.1-.14,.2-.2,.3Z"/>
    <path class="cls-2" d="M241.57,542.38c.14-.2,.28-.41,.42-.62-.14,.2-.28,.4-.42,.62Z"/>
    <path class="cls-2" d="M241.99,541.76c.08-.12,.16-.24,.24-.35-.08,.12-.16,.24-.24,.35Z"/>
    <path class="cls-2" d="M242.24,541.41c.51-.75,1.05-1.52,1.57-2.29-.47,.68-.99,1.44-1.57,2.29Z"/>
    <path class="cls-1" d="M256.19,646.27s.65,.47,1.78,1.27l73.02-73.75c.96-1.2,2.1-2.33,3.35-3.38l79.9-80.7-3.44-.2c-17.24-2.42-71.11,2.96-71.11,2.96-31.25,3.5-61.14,18.05-61.14,18.05-21.28,9.16-39.33,35.29-39.33,35.29-18.32,26.67-7.27,64.65-7.27,64.65,5.93,20.47,24.24,35.82,24.24,35.82Zm154.98-156.71c-.09-.01-.17-.02-.26-.04,.06,0,.15,.02,.26,.04Zm2.64,.37c-.35-.05-.72-.1-1.12-.16,.35,.05,.73,.1,1.12,.16Zm-1.91-.27c-.07,0-.14-.02-.21-.03,.07,0,.13,.02,.21,.03Zm-133.15,20.77c-.06,.03-.12,.05-.19,.08,.03-.01,.09-.04,.19-.08Zm9.24-3.98s.01,0,0,0h0Zm-.05,.02s-.1,.04-.18,.08c.08-.03,.14-.06,.18-.08Zm-.98,.42c-.13,.06-.27,.12-.43,.19,.15-.07,.3-.13,.43-.19Zm-1.05,.45c-.15,.07-.31,.13-.48,.21,.17-.07,.33-.14,.48-.21Zm-1.24,.53c-.15,.07-.31,.14-.48,.21,.16-.07,.32-.14,.48-.21Zm-.51,.22c-.2,.09-.42,.18-.64,.28,.21-.09,.43-.18,.64-.28Zm-.66,.28c-.25,.11-.51,.22-.78,.33,.26-.11,.52-.22,.78-.33Zm-1.1,.47c-.13,.05-.25,.11-.38,.17,.13-.05,.26-.11,.38-.17Zm-.77,.33c-.14,.06-.28,.12-.43,.19,.14-.06,.28-.12,.43-.19Zm-1.59,.68c-.28,.12-.57,.25-.87,.38,.24-.1,.53-.23,.87-.38Zm-1.02,.44c-.06,.02-.11,.05-.17,.07,.05-.02,.11-.05,.17-.07Z"/>
    <path class="cls-2" d="M231.8,609.94c-.06-.2-.13-.45-.21-.74,.07,.24,.14,.49,.21,.74Z"/>
    <path class="cls-2" d="M231.59,609.2c-.16-.55-.31-1.07-.45-1.56,.17,.58,.32,1.12,.45,1.56Z"/>
    <path class="cls-2" d="M231.14,607.64c-.21-.71-.43-1.49-.65-2.25,.19,.66,.41,1.4,.65,2.25Z"/>
    <path class="cls-2" d="M231.85,610.12s-.02-.06-.02-.09c0,.03,.02,.06,.02,.09Z"/>
    <path class="cls-2" d="M231.95,610.45s0,0,0-.02c0,0,0,.01,0,.02Z"/>
    <path class="cls-2" d="M230.48,605.39c-.14-.47-.26-.89-.37-1.27,.12,.41,.24,.83,.37,1.27Z"/>
    <path class="cls-2" d="M231.83,610.04s-.02-.07-.03-.1c.01,.04,.02,.07,.03,.1Z"/>
    <path class="cls-2" d="M231.94,610.43c-.03-.1-.06-.2-.09-.3,.05,.16,.08,.26,.09,.3Z"/>
    <path class="cls-2" d="M229.39,601.6s-.02-.07-.03-.1c0,.03,.02,.06,.03,.1Z"/>
    <path class="cls-2" d="M229.36,601.5c-.06-.21-.05-.19,0,0h0Z"/>
    <path class="cls-2" d="M229.45,601.82c-.03-.09-.05-.16-.06-.22,.02,.06,.04,.14,.06,.22Z"/>
    <path class="cls-2" d="M229.67,602.57c-.09-.3-.16-.55-.22-.75,.05,.19,.13,.43,.22,.75Z"/>
    <path class="cls-2" d="M230.12,604.12c-.08-.29-.16-.56-.24-.82,.07,.25,.15,.52,.24,.82Z"/>
    <path class="cls-2" d="M229.88,603.3c-.08-.28-.15-.52-.21-.73,.06,.22,.14,.47,.21,.73Z"/>
    <path class="cls-2" d="M353.14,490.96c.08,0,.15-.02,.21-.02-.06,0-.13,.01-.21,.02Z"/>
    <path class="cls-2" d="M353.56,490.91s.02,0,0,0h0Z"/>
    <path class="cls-2" d="M349.64,491.35c.32-.04,.62-.07,.92-.1-.28,.03-.59,.07-.92,.1Z"/>
    <path class="cls-2" d="M350.55,491.25c.39-.04,.74-.08,1.05-.12-.32,.04-.68,.08-1.05,.12Z"/>
    <path class="cls-2" d="M347.83,491.56c.06,0,.12-.01,.18-.02-.06,0-.12,.01-.18,.02Z"/>
    <path class="cls-2" d="M347.76,491.56s.05,0,.07,0c-.02,0-.05,0-.07,0Z"/>
    <path class="cls-2" d="M347.41,491.6c.12-.01,.23-.03,.35-.04-.11,.01-.23,.03-.35,.04Z"/>
    <path class="cls-2" d="M348.01,491.54c.59-.07,1.13-.13,1.62-.18-.52,.06-1.06,.12-1.62,.18Z"/>
    <path class="cls-2" d="M351.6,491.13c.19-.02,.37-.04,.53-.06-.16,.02-.34,.04-.53,.06Z"/>
    <path class="cls-2" d="M353.5,490.92s.05,0,.06,0c-.01,0-.03,0-.06,0Z"/>
    <path class="cls-2" d="M345.94,491.77c.52-.06,1.01-.11,1.47-.16-.49,.05-.98,.11-1.47,.16Z"/>
    <path class="cls-2" d="M353.35,490.94c.06,0,.11-.01,.14-.02-.04,0-.08,0-.14,.02Z"/>
    <path class="cls-2" d="M352.14,491.07c.36-.04,.64-.07,.86-.1-.23,.03-.52,.06-.86,.1Z"/>
    <path class="cls-2" d="M352.99,490.98c.05,0,.1-.01,.15-.02-.05,0-.1,.01-.15,.02Z"/>
  </g>
  <path class="cls-4" d="M655.51,241.83l8.86,67.63s-59.64-2.59-99.83,9.29c-40.19,11.88-52.29,20.53-72.39,41.92-20.1,21.39-23.99,58.13-10.59,92.92,13.4,34.79,59.64,54.24,81.46,57.48,21.82,3.24,40.41,4.97,40.41,4.97l-.43-114.31h77.57v169.62s-42.57,6.48-95.29,1.73c0,0-48.4-4.75-72.39-13.4-23.99-8.64-52.72-24.63-62.45-32.63-9.72-8-26.15-20.96-35.22-36.09-9.08-15.13-13.83-21.61-20.74-45.59,0,0-9.72-52.08,1.51-76.71,0,0,4.11-29.39,37.81-62.66,0,0,20.53-19.66,53.37-36.09,0,0,38.46-16.85,63.96-20.31,0,0,10.37-3.46,46.03-6.48,0,0,55.53-2.38,58.34-1.3Z"/>
  <g>
    <path class="cls-1" d="M414.67,489.71l60.41-61.01c-4.04-26.54,1.84-51.84,17.19-68.18,20.1-21.39,32.2-30.04,72.39-41.92,7.72-2.28,16.15-4.03,24.74-5.36l66.77-67.44-.54-4.12c-2.81-1.08-58.34,1.3-58.34,1.3-35.65,3.03-46.03,6.48-46.03,6.48-25.5,3.46-63.96,20.31-63.96,20.31-32.84,16.42-53.37,36.09-53.37,36.09-33.71,33.28-37.81,62.66-37.81,62.66-11.24,24.63-1.51,76.71-1.51,76.71,6.74,23.39,11.43,30.14,20.08,44.48Z"/>
    <path class="cls-1" d="M630.68,574.64c29.81-.36,50.01-3.44,50.01-3.44v-169.62h-.1l-49.91,173.06Z"/>
  </g>
</svg>